<?xml version="1.0" encoding="UTF-8"?><svg xmlns="http://www.w3.org/2000/svg" xmlns:xlink="http://www.w3.org/1999/xlink" viewBox="0 0 512 512" width="512" height="512"><defs><radialGradient id="bgGlow" cx="50%" cy="50%" r="50%"><stop offset="0%" stop-color="#4B0082" stop-opacity="0.18"/><stop offset="100%" stop-color="#1A1A1A" stop-opacity="0"/></radialGradient><radialGradient id="goldGrad" cx="50%" cy="30%" r="70%"><stop offset="0%" stop-color="#F5E6C8"/><stop offset="40%" stop-color="#C9A84C"/><stop offset="100%" stop-color="#7A5C1E"/></radialGradient><radialGradient id="goldGrad2" cx="50%" cy="20%" r="80%"><stop offset="0%" stop-color="#F5E6C8"/><stop offset="50%" stop-color="#C9A84C"/><stop offset="100%" stop-color="#5A3E10"/></radialGradient><radialGradient id="crownGemRed" cx="50%" cy="30%" r="60%"><stop offset="0%" stop-color="#FF6B6B"/><stop offset="50%" stop-color="#9B1C1C"/><stop offset="100%" stop-color="#3D0000"/></radialGradient><radialGradient id="crownGemPurple" cx="50%" cy="30%" r="60%"><stop offset="0%" stop-color="#9B59B6"/><stop offset="50%" stop-color="#4B0082"/><stop offset="100%" stop-color="#1A0030"/></radialGradient><radialGradient id="eyeGlow" cx="50%" cy="40%" r="60%"><stop offset="0%" stop-color="#FF4444"/><stop offset="60%" stop-color="#9B1C1C"/><stop offset="100%" stop-color="#3D0000"/></radialGradient><radialGradient id="eyeGlowOuter" cx="50%" cy="50%" r="50%"><stop offset="0%" stop-color="#FF2222" stop-opacity="0.9"/><stop offset="100%" stop-color="#9B1C1C" stop-opacity="0"/></radialGradient><radialGradient id="faceGrad" cx="50%" cy="30%" r="70%"><stop offset="0%" stop-color="#2A2A2A"/><stop offset="60%" stop-color="#1A1A1A"/><stop offset="100%" stop-color="#0A0A0A"/></radialGradient><radialGradient id="armourGrad" cx="40%" cy="20%" r="80%"><stop offset="0%" stop-color="#3A3A3A"/><stop offset="50%" stop-color="#1A1A1A"/><stop offset="100%" stop-color="#0A0A0A"/></radialGradient><linearGradient id="shoulderLeft" x1="0%" y1="0%" x2="100%" y2="100%"><stop offset="0%" stop-color="#C9A84C"/><stop offset="50%" stop-color="#7A5C1E"/><stop offset="100%" stop-color="#3A2A00"/></linearGradient><linearGradient id="shoulderRight" x1="100%" y1="0%" x2="0%" y2="100%"><stop offset="0%" stop-color="#C9A84C"/><stop offset="50%" stop-color="#7A5C1E"/><stop offset="100%" stop-color="#3A2A00"/></linearGradient><linearGradient id="crownBase" x1="0%" y1="0%" x2="0%" y2="100%"><stop offset="0%" stop-color="#F5E6C8"/><stop offset="30%" stop-color="#C9A84C"/><stop offset="100%" stop-color="#5A3E10"/></linearGradient><linearGradient id="cloakGrad" x1="0%" y1="0%" x2="100%" y2="100%"><stop offset="0%" stop-color="#9B1C1C"/><stop offset="50%" stop-color="#6B0000"/><stop offset="100%" stop-color="#3D0000"/></linearGradient><linearGradient id="neckGrad" x1="0%" y1="0%" x2="100%" y2="0%"><stop offset="0%" stop-color="#C9A84C"/><stop offset="50%" stop-color="#F5E6C8"/><stop offset="100%" stop-color="#C9A84C"/></linearGradient><linearGradient id="dragonGrad" x1="0%" y1="0%" x2="100%" y2="100%"><stop offset="0%" stop-color="#4B0082" stop-opacity="0.7"/><stop offset="100%" stop-color="#9B1C1C" stop-opacity="0.4"/></linearGradient><filter id="eyeFilter" x="-50%" y="-50%" width="200%" height="200%"><feGaussianBlur stdDeviation="4" result="blur"/><feComposite in="SourceGraphic" in2="blur" operator="over"/></filter><filter id="glowFilter" x="-30%" y="-30%" width="160%" height="160%"><feGaussianBlur stdDeviation="6" result="blur"/><feComposite in="SourceGraphic" in2="blur" operator="over"/></filter><filter id="softGlow" x="-20%" y="-20%" width="140%" height="140%"><feGaussianBlur stdDeviation="3" result="blur"/><feComposite in="SourceGraphic" in2="blur" operator="over"/></filter><filter id="dragonBlur" x="-10%" y="-10%" width="120%" height="120%"><feGaussianBlur stdDeviation="2.5"/></filter><filter id="crownGlow" x="-20%" y="-20%" width="140%" height="140%"><feGaussianBlur stdDeviation="4" result="blur"/><feComposite in="SourceGraphic" in2="blur" operator="over"/></filter><filter id="deepShadow" x="-10%" y="-10%" width="120%" height="120%"><feDropShadow dx="0" dy="4" stdDeviation="8" flood-color="#000000" flood-opacity="0.8"/></filter></defs><rect width="512" height="512" fill="url(#bgGlow)"/><g opacity="0.35" filter="url(#dragonBlur)"><path d="M380 320 Q420 280 450 240 Q470 210 460 180 Q450 160 430 170 Q415 178 420 200 Q425 215 410 225 Q395 235 385 255 Q370 280 375 310 Z" fill="url(#dragonGrad)" stroke="#4B0082" stroke-width="1.5"/><path d="M440 175 Q455 155 465 140 Q472 128 462 122 Q452 118 445 130 Q438 142 435 158 Q432 170 440 175 Z" fill="#4B0082" opacity="0.6"/><path d="M420 200 Q435 190 445 178 Q452 168 448 160 Q444 152 436 158 Q428 164 424 176 Q420 188 420 200 Z" fill="#9B1C1C" opacity="0.5"/><ellipse cx="458" cy="122" rx="5" ry="4" fill="#9B1C1C" opacity="0.8"/><path d="M390 260 Q400 245 415 238 Q425 233 422 245 Q419 255 408 262 Q398 268 390 260 Z" fill="#4B0082" opacity="0.5"/><path d="M375 310 Q365 330 370 355 Q373 368 385 362 Q395 356 390 340 Q386 325 375 310 Z" fill="url(#dragonGrad)" opacity="0.6"/><path d="M130 310 Q90 280 60 240 Q40 210 50 180 Q60 160 80 170 Q95 178 90 200 Q85 215 100 225 Q115 235 125 255 Q140 280 135 310 Z" fill="url(#dragonGrad)" stroke="#4B0082" stroke-width="1.5"/><path d="M70 175 Q55 155 45 140 Q38 128 48 122 Q58 118 65 130 Q72 142 75 158 Q78 170 70 175 Z" fill="#4B0082" opacity="0.6"/><path d="M90 200 Q75 190 65 178 Q58 168 62 160 Q66 152 74 158 Q82 164 86 176 Q90 188 90 200 Z" fill="#9B1C1C" opacity="0.5"/><ellipse cx="54" cy="122" rx="5" ry="4" fill="#9B1C1C" opacity="0.8"/><path d="M135 310 Q145 330 140 355 Q137 368 125 362 Q115 356 120 340 Q124 325 135 310 Z" fill="url(#dragonGrad)" opacity="0.6"/></g><g filter="url(#deepShadow)"><path d="M80 420 Q100 370 130 340 Q160 310 180 300 L256 295 L332 300 Q352 310 382 340 Q412 370 432 420 Z" fill="url(#cloakGrad)"/><path d="M80 420 Q95 380 115 355 Q135 330 155 318 L180 310 L180 420 Z" fill="#6B0000"/><path d="M432 420 Q417 380 397 355 Q377 330 357 318 L332 310 L332 420 Z" fill="#6B0000"/><path d="M155 318 Q170 308 180 305 L180 420 L155 420 Z" fill="#9B1C1C" opacity="0.4"/><path d="M357 318 Q342 308 332 305 L332 420 L357 420 Z" fill="#9B1C1C" opacity="0.4"/></g><g filter="url(#deepShadow)"><path d="M100 390 Q90 360 88 330 Q86 300 95 280 Q108 255 130 248 L180 240 L180 420 Q140 420 100 390 Z" fill="url(#shoulderLeft)"/><path d="M412 390 Q422 360 424 330 Q426 300 417 280 Q404 255 382 248 L332 240 L332 420 Q372 420 412 390 Z" fill="url(#shoulderRight)"/><path d="M100 390 Q92 365 90 340 Q95 320 108 308 L130 300 L130 390 Z" fill="#C9A84C" opacity="0.3"/><path d="M412 390 Q420 365 422 340 Q417 320 404 308 L382 300 L382 390 Z" fill="#C9A84C" opacity="0.3"/><path d="M88 330 Q92 310 100 295 L130 285 L130 300 Q108 308 95 330 Z" fill="#F5E6C8" opacity="0.2"/><path d="M424 330 Q420 310 412 295 L382 285 L382 300 Q404 308 417 330 Z" fill="#F5E6C8" opacity="0.2"/></g><g><path d="M130 248 Q140 235 155 228 L180 222 L180 248 Z" fill="#C9A84C" opacity="0.6"/><path d="M382 248 Q372 235 357 228 L332 222 L332 248 Z" fill="#C9A84C" opacity="0.6"/><rect x="155" y="220" width="202" height="28" rx="4" fill="url(#neckGrad)"/><rect x="165" y="224" width="182" height="6" rx="2" fill="#F5E6C8" opacity="0.4"/><rect x="165" y="234" width="182" height="4" rx="2" fill="#7A5C1E" opacity="0.5"/><rect x="155" y="240" width="202" height="4" rx="2" fill="#C9A84C" opacity="0.3"/><circle cx="200" cy="234" r="5" fill="#9B1C1C"/><circle cx="256" cy="234" r="5" fill="#4B0082"/><circle cx="312" cy="234" r="5" fill="#9B1C1C"/><circle cx="200" cy="234" r="3" fill="#FF6B6B"/><circle cx="256" cy="234" r="3" fill="#9B59B6"/><circle cx="312" cy="234" r="3" fill="#FF6B6B"/></g><g filter="url(#deepShadow)"><ellipse cx="256" cy="310" rx="110" ry="130" fill="url(#faceGrad)"/><ellipse cx="256" cy="305" rx="108" ry="128" fill="none" stroke="#C9A84C" stroke-width="2.5" opacity="0.6"/><path d="M148 290 Q150 260 160 240 Q170 220 180 215 L180 248 Q165 255 158 275 Q152 290 148 290 Z" fill="#C9A84C" opacity="0.3"/><path d="M364 290 Q362 260 352 240 Q342 220 332 215 L332 248 Q347 255 354 275 Q360 290 364 290 Z" fill="#C9A84C" opacity="0.3"/><path d="M148 290 Q146 310 148 330 Q152 355 160 370 L175 380 Q160 360 156 335 Q152 310 148 290 Z" fill="#C9A84C" opacity="0.2"/><path d="M364 290 Q366 310 364 330 Q360 355 352 370 L337 380 Q352 360 356 335 Q360 310 364 290 Z" fill="#C9A84C" opacity="0.2"/></g><g><path d="M175 295 Q185 285 200 282 L215 280 L215 295 Q205 292 195 295 Q185 298 180 308 Q175 318 178 330 Q181 342 190 348 L215 352 L215 365 Q195 362 182 350 Q168 336 168 318 Q168 305 175 295 Z" fill="#C9A84C" opacity="0.5"/><path d="M337 295 Q327 285 312 282 L297 280 L297 295 Q307 292 317 295 Q327 298 332 308 Q337 318 334 330 Q331 342 322 348 L297 352 L297 365 Q317 362 330 350 Q344 336 344 318 Q344 305 337 295 Z" fill="#C9A84C" opacity="0.5"/></g><g filter="url(#glowFilter)"><ellipse cx="210" cy="310" rx="32" ry="28" fill="#0A0A0A" stroke="#C9A84C" stroke-width="3"/><ellipse cx="302" cy="310" rx="32" ry="28" fill="#0A0A0A" stroke="#C9A84C" stroke-width="3"/><ellipse cx="210" cy="310" rx="26" ry="22" fill="url(#eyeGlow)"/><ellipse cx="302" cy="310" rx="26" ry="22" fill="url(#eyeGlow)"/><ellipse cx="210" cy="310" rx="26" ry="22" fill="url(#eyeGlowOuter)" opacity="0.6"/><ellipse cx="302" cy="310" rx="26" ry="22" fill="url(#eyeGlowOuter)" opacity="0.6"/><circle cx="210" cy="310" r="14" fill="#9B1C1C"/><circle cx="302" cy="310" r="14" fill="#9B1C1C"/><circle cx="210" cy="310" r="8" fill="#FF2222"/><circle cx="302" cy="310" r="8" fill="#FF2222"/><circle cx="210" cy="310" r="4" fill="#FF8888"/><circle cx="302" cy="310" r="4" fill="#FF8888"/><circle cx="205" cy="305" r="3" fill="#FFAAAA" opacity="0.8"/><circle cx="297" cy="305" r="3" fill="#FFAAAA" opacity="0.8"/><ellipse cx="210" cy="310" rx="32" ry="28" fill="none" stroke="#FF2222" stroke-width="1" opacity="0.5"/><ellipse cx="302" cy="310" rx="32" ry="28" fill="none" stroke="#FF2222" stroke-width="1" opacity="0.5"/><line x1="178" y1="310" x2="242" y2="310" stroke="#C9A84C" stroke-width="1" opacity="0.4"/><line x1="210" y1="282" x2="210" y2="338" stroke="#C9A84C" stroke-width="1" opacity="0.4"/><line x1="270" y1="310" x2="334" y2="310" stroke="#C9A84C" stroke-width="1" opacity="0.4"/><line x1="302" y1="282" x2="302" y2="338" stroke="#C9A84C" stroke-width="1" opacity="0.4"/></g><g><path d="M220 370 Q238 365 256 365 Q274 365 292 370 Q280 380 256 382 Q232 380 220 370 Z" fill="#C9A84C" opacity="0.7"/><path d="M230 375 Q243 372 256 372 Q269 372 282 375 Q269 380 256 381 Q243 380 230 375 Z" fill="#F5E6C8" opacity="0.4"/><path d="M215 355 Q220 350 230 348 L230 358 Q222 360 218 365 Z" fill="#C9A84C" opacity="0.4"/><path d="M297 355 Q292 350 282 348 L282 358 Q290 360 294 365 Z" fill="#C9A84C" opacity="0.4"/></g><g><path d="M200 395 Q210 388 220 385 L220 395 Q212 398 206 404 Z" fill="#C9A84C" opacity="0.3"/><path d="M312 395 Q302 388 292 385 L292 395 Q300 398 306 404 Z" fill="#C9A84C" opacity="0.3"/><path d="M220 385 Q238 380 256 380 Q274 380 292 385 L292 395 Q274 390 256 390 Q238 390 220 395 Z" fill="#1A1A1A" stroke="#C9A84C" stroke-width="1" opacity="0.6"/></g><g filter="url(#crownGlow)"><path d="M156 222 L170 140 L200 185 L220 110 L256 165 L292 110 L312 185 L342 140 L356 222 Z" fill="url(#crownBase)" stroke="#C9A84C" stroke-width="2"/><path d="M156 222 L170 140 L185 165 L170 222 Z" fill="#F5E6C8" opacity="0.2"/><path d="M342 222 L328 140 L313 165 L328 222 Z" fill="#F5E6C8" opacity="0.2"/><path d="M200 185 L220 110 L238 155 L220 185 Z" fill="#F5E6C8" opacity="0.15"/><path d="M312 185 L292 110 L274 155 L292 185 Z" fill="#F5E6C8" opacity="0.15"/><path d="M256 165 L292 110 L274 155 L256 165 L238 155 L220 110 Z" fill="#F5E6C8" opacity="0.1"/><rect x="148" y="210" width="216" height="20" rx="4" fill="url(#goldGrad2)" stroke="#C9A84C" stroke-width="1.5"/><rect x="148" y="210" width="216" height="8" rx="4" fill="#F5E6C8" opacity="0.25"/><circle cx="170" cy="140" r="10" fill="url(#crownGemRed)" stroke="#C9A84C" stroke-width="1.5"/><circle cx="170" cy="140" r="5" fill="#FF6B6B" opacity="0.8"/><circle cx="342" cy="140" r="10" fill="url(#crownGemRed)" stroke="#C9A84C" stroke-width="1.5"/><circle cx="342" cy="140" r="5" fill="#FF6B6B" opacity="0.8"/><circle cx="200" cy="185" r="12" fill="url(#crownGemPurple)" stroke="#C9A84C" stroke-width="1.5"/><circle cx="200" cy="185" r="6" fill="#9B59B6" opacity="0.8"/><circle cx="312" cy="185" r="12" fill="url(#crownGemPurple)" stroke="#C9A84C" stroke-width="1.5"/><circle cx="312" cy="185" r="6" fill="#9B59B6" opacity="0.8"/><circle cx="256" cy="165" r="16" fill="url(#crownGemRed)" stroke="#C9A84C" stroke-width="2"/><circle cx="256" cy="165" r="8" fill="#FF4444" opacity="0.9"/><circle cx="252" cy="161" r="4" fill="#FF9999" opacity="0.7"/><circle cx="220" cy="110" r="9" fill="url(#crownGemPurple)" stroke="#C9A84C" stroke-width="1.5"/><circle cx="220" cy="110" r="4" fill="#9B59B6" opacity="0.8"/><circle cx="292" cy="110" r="9" fill="url(#crownGemPurple)" stroke="#C9A84C" stroke-width="1.5"/><circle cx="292" cy="110" r="4" fill="#9B59B6" opacity="0.8"/><circle cx="185" cy="220" r="6" fill="url(#crownGemRed)" stroke="#C9A84C" stroke-width="1"/><circle cx="220" cy="220" r="6" fill="url(#crownGemPurple)" stroke="#C9A84C" stroke-width="1"/><circle cx="256" cy="220" r="7" fill="url(#crownGemRed)" stroke="#C9A84C" stroke-width="1"/><circle cx="292" cy="220" r="6" fill="url(#crownGemPurple)" stroke="#C9A84C" stroke-width="1"/><circle cx="327" cy="220" r="6" fill="url(#crownGemRed)" stroke="#C9A84C" stroke-width="1"/></g><g opacity="0.5"><path d="M148 210 L148 222" stroke="#C9A84C" stroke-width="2"/><path d="M364 210 L364 222" stroke="#C9A84C" stroke-width="2"/><path d="M160 210 L160 222" stroke="#C9A84C" stroke-width="1" opacity="0.5"/><path d="M352 210 L352 222" stroke="#C9A84C" stroke-width="1" opacity="0.5"/></g><g opacity="0.6"><path d="M256 248 L256 270" stroke="#C9A84C" stroke-width="2"/><path d="M230 252 L230 268" stroke="#C9A84C" stroke-width="1.5"/><path d="M282 252 L282 268" stroke="#C9A84C" stroke-width="1.5"/><path d="M210 258 L210 268" stroke="#C9A84C" stroke-width="1"/><path d="M302 258 L302 268" stroke="#C9A84C" stroke-width="1"/></g><g opacity="0.4"><path d="M148 290 Q145 310 148 330" stroke="#C9A84C" stroke-width="1.5" fill="none"/><path d="M364 290 Q367 310 364 330" stroke="#C9A84C" stroke-width="1.5" fill="none"/><path d="M152 270 Q148 280 148 290" stroke="#C9A84C" stroke-width="1" fill="none"/><path d="M360 270 Q364 280 364 290" stroke="#C9A84C" stroke-width="1" fill="none"/></g><g opacity="0.25"><line x1="256" y1="248" x2="256" y2="420" stroke="#C9A84C" stroke-width="0.5" stroke-dasharray="4,6"/><line x1="148" y1="340" x2="364" y2="340" stroke="#C9A84C" stroke-width="0.5" stroke-dasharray="3,8"/></g><g filter="url(#softGlow)" opacity="0.7"><path d="M256 165 Q260 155 256 148 Q252 155 256 165 Z" fill="#FF4444"/><path d="M170 140 Q174 132 170 126 Q166 132 170 140 Z" fill="#FF4444"/><path d="M342 140 Q346 132 342 126 Q338 132 342 140 Z" fill="#FF4444"/></g><g opacity="0.15"><ellipse cx="256" cy="310" rx="108" ry="128" fill="none" stroke="#4B0082" stroke-width="1"/><ellipse cx="256" cy="310" rx="100" ry="120" fill="none" stroke="#4B0082" stroke-width="0.5"/></g></svg>